<svg width="14" height="14" viewBox="0 0 14 14" fill="none" xmlns="http://www.w3.org/2000/svg">
<path fill-rule="evenodd" clip-rule="evenodd" d="M4.24341 1.52393C2.89721 1.52393 1.80591 2.61523 1.80591 3.96143V9.96143C1.80591 11.3076 2.89721 12.3989 4.24341 12.3989H10.2434C11.5896 12.3989 12.6809 11.3076 12.6809 9.96143V3.96143C12.6809 2.61523 11.5896 1.52393 10.2434 1.52393H4.24341ZM0.680908 3.96143C0.680908 1.99391 2.27589 0.398926 4.24341 0.398926H10.2434C12.2109 0.398926 13.8059 1.99391 13.8059 3.96143V9.96143C13.8059 11.9289 12.2109 13.5239 10.2434 13.5239H4.24341C2.27589 13.5239 0.680908 11.9289 0.680908 9.96143V3.96143ZM7.24341 5.27393C6.31143 5.27393 5.55591 6.02945 5.55591 6.96143C5.55591 7.89341 6.31143 8.64893 7.24341 8.64893C8.17539 8.64893 8.93091 7.89341 8.93091 6.96143C8.93091 6.02945 8.17539 5.27393 7.24341 5.27393ZM4.43091 6.96143C4.43091 5.40813 5.69011 4.14893 7.24341 4.14893C8.79671 4.14893 10.0559 5.40813 10.0559 6.96143C10.0559 8.51473 8.79671 9.77393 7.24341 9.77393C5.69011 9.77393 4.43091 8.51473 4.43091 6.96143ZM11.1809 3.58643C11.1809 3.27577 10.9291 3.02393 10.6184 3.02393C10.3077 3.02393 10.0559 3.27577 10.0559 3.58643V3.58743C10.0559 3.89809 10.3077 4.14993 10.6184 4.14993C10.9291 4.14993 11.1809 3.89809 11.1809 3.58743V3.58643Z" fill="#282828"/>
</svg>
