<svg width="17" height="21" viewBox="0 0 17 21" fill="none" xmlns="http://www.w3.org/2000/svg">
<path fill-rule="evenodd" clip-rule="evenodd" d="M6.30777 3.99965C6.30777 3.82743 6.39493 3.46165 6.74883 3.13397C7.09062 2.81749 7.75208 2.47401 9.00008 2.47401C10.2481 2.47401 10.9095 2.81749 11.2513 3.13397C11.6052 3.46165 11.6924 3.82743 11.6924 3.99965H13.3078C13.3078 3.39409 13.0449 2.5932 12.3488 1.94866C11.6406 1.29292 10.5521 0.858624 9.00008 0.858624C7.44807 0.858624 6.35953 1.29292 5.65132 1.94866C4.95522 2.5932 4.69238 3.39409 4.69238 3.99965H6.30777ZM6.30777 4V5.82046H11.6924V4H13.3078V5.82046H16.0821C16.5282 5.82046 16.8898 6.18208 16.8898 6.62816V17.6613C16.8898 18.2956 16.6357 18.9027 16.1855 19.3492C15.7356 19.7955 15.1267 20.0451 14.4931 20.0451H3.3703C2.73677 20.0451 2.12787 19.7955 1.67792 19.3492C1.22774 18.9027 0.973633 18.2956 0.973633 17.6613V6.62816C0.973633 6.18208 1.33525 5.82046 1.78133 5.82046H4.69238V4H6.30777ZM4.69238 9.83333V7.43585H2.58902V17.6613C2.58902 17.863 2.66973 18.0577 2.81553 18.2023C2.96156 18.3472 3.16099 18.4297 3.3703 18.4297H14.4931C14.7024 18.4297 14.9019 18.3472 15.0479 18.2023C15.1937 18.0577 15.2744 17.863 15.2744 17.6613V7.43585H13.3078V9.83333H11.6924V7.43585H6.30777V9.83333H4.69238Z" fill="#282828"/>
</svg>
