<svg width="17" height="14" viewBox="0 0 17 14" fill="none" xmlns="http://www.w3.org/2000/svg">
<path d="M16.2272 0.929873C15.4772 1.29737 14.7422 1.44662 13.9772 1.67237C13.1364 0.723623 11.8899 0.671123 10.6922 1.11962C9.49442 1.56812 8.70992 2.66462 8.72717 3.92237V4.67237C6.29342 4.73462 4.12592 3.62612 2.72717 1.67237C2.72717 1.67237 -0.409327 7.24712 5.72717 9.92237C4.32317 10.8576 2.92292 11.4884 1.22717 11.4224C3.70817 12.7746 6.41192 13.2396 8.75267 12.5601C11.4377 11.7801 13.6442 9.76787 14.4909 6.75362C14.7435 5.83688 14.8689 4.88977 14.8637 3.93887C14.8622 3.75212 15.9962 1.85987 16.2272 0.929123V0.929873Z" stroke="#282828" stroke-width="1.125" stroke-linecap="round" stroke-linejoin="round"/>
</svg>
